<?xml version="1.0" encoding="UTF-8" standalone="no"?><!DOCTYPE svg PUBLIC "-//W3C//DTD SVG 1.1//EN" "http://www.w3.org/Graphics/SVG/1.1/DTD/svg11.dtd"><svg width="100%" height="100%" viewBox="0 0 4234 4938" version="1.1" xmlns="http://www.w3.org/2000/svg" xmlns:xlink="http://www.w3.org/1999/xlink" xml:space="preserve" xmlns:serif="http://www.serif.com/" style="fill-rule:evenodd;clip-rule:evenodd;stroke-linejoin:round;stroke-miterlimit:2;"><g><g id="Finish"><rect x="-6574.99" y="-2012.49" width="20457.7" height="9964" style="fill:none;stroke:#000;stroke-width:162.5px;"/><g><path d="M2262.67,1009.68c-0,-146.556 58.237,-287.135 161.919,-390.753c103.618,-103.618 244.132,-161.855 390.624,-161.855l610.717,0c422.957,0 418.393,0 418.136,418.329c-0.45,630.965 -0.772,1246.89 0.707,1848.93c0.643,249.275 -38.568,481.451 -113.903,684.766c-186.988,504.527 -553.508,853.049 -771.093,1002.63c-618.88,395.252 -696.722,-313.747 -696.722,-416.851c0,-950.174 -0.385,-2054.11 -0.385,-2985.19Z" style="fill:none;stroke:#859cae;stroke-width:108.33px;"/><path d="M1828.34,1009.68c0,-146.556 -58.237,-287.135 -161.855,-390.753c-103.682,-103.618 -244.196,-161.855 -390.688,-161.855l-610.717,0c-422.892,0 -418.393,0 -418.136,418.329c0.45,630.965 4.114,1246.89 2.571,1848.93c-2.185,867.897 579.799,1477.52 885.06,1687.39c618.88,395.252 696.722,-313.747 696.722,-416.851c0,-950.174 -2.957,-2054.11 -2.957,-2985.19Z" style="fill:none;stroke:#859cae;stroke-width:108.33px;"/><path d="M246.943,950.032c0.065,1.222 25.519,499.064 196.952,936.226c726.74,1853.04 2072.87,1466.27 2848.66,529.275c547.337,-661.175 551.258,-1166.47 551.258,-1166.47c-0,-0 -0.772,1108.62 -0.772,1595.47c0,523.811 -317.025,956.988 -317.025,956.988c0,0 220.607,-879.981 -589.825,-117.373c-261.424,245.996 -673.132,779.449 -1104.83,909.55c-533.003,160.505 -1581.78,-688.623 -1581.78,-1834.08l-2.636,-1809.59Z" style="fill:none;stroke:#859cae;stroke-width:108.33px;"/></g></g></g></svg>