<svg width="915" height="1373" viewBox="0 0 915 1373" fill="none" xmlns="http://www.w3.org/2000/svg">
<path d="M440.075 122.695L239.354 3C239.354 3 237.395 500.881 237.42 739.092C237.395 891.03 324.043 1099.32 541.834 1210.16C723.73 1302.71 911.196 1210.16 911.196 1016.29C911.196 539.11 911.73 443.666 911.73 443.666L911.196 443.338L711.9 323.966L711.874 323.971C711.874 323.971 709.508 808.805 711.874 925.63C713.375 999.287 650.514 1047.68 574.729 1015.27C500.215 983.393 438.905 906.053 439.21 826.418C440.075 609.769 439.21 122.695 439.21 122.695" stroke="#4E5358" stroke-width="3"/>
<path fill-rule="evenodd" clip-rule="evenodd" d="M4.01953 127.32L114.819 194.931L203.876 247.015L440.06 122.695L239.339 3L4.01953 127.32Z" stroke="#4E5358" stroke-width="3"/>
<path fill-rule="evenodd" clip-rule="evenodd" d="M476.832 448.862L578.196 510.04L676.342 567.866L911.248 443.834L711.739 323.992L476.832 448.862Z" stroke="#4E5358" stroke-width="3"/>
<path d="M204.655 247.211L3.93432 127.516C3.93432 127.516 1.97481 625.397 2.00025 863.608C1.97481 1015.55 88.6235 1223.84 306.414 1334.67C488.31 1427.22 675.776 1334.67 675.776 1140.8C675.776 663.625 676.31 568.182 676.31 568.182L476.48 448.481L476.454 448.487C476.454 448.487 474.088 933.321 476.454 1050.15C477.955 1123.8 415.094 1172.2 339.309 1139.79C264.795 1107.91 203.485 1030.57 203.79 950.934C204.655 734.284 203.79 247.211 203.79 247.211" stroke="#4E5358" stroke-width="3"/>
</svg>
