<?xml version="1.0" encoding="UTF-8" standalone="no"?><!DOCTYPE svg PUBLIC "-//W3C//DTD SVG 1.1//EN" "http://www.w3.org/Graphics/SVG/1.1/DTD/svg11.dtd"><svg width="100%" height="100%" viewBox="0 0 1282 256" version="1.1" xmlns="http://www.w3.org/2000/svg" xmlns:xlink="http://www.w3.org/1999/xlink" xml:space="preserve" xmlns:serif="http://www.serif.com/" style="fill-rule:evenodd;clip-rule:evenodd;stroke-linecap:round;stroke-linejoin:round;stroke-miterlimit:1.5;"><rect id="Artboard2" x="0" y="0" width="1281.15" height="256" style="fill:none;"/><path d="M288.817,158.621c14.75,0 25.486,0 25.486,17.566c0,22.16 34.537,20.006 34.537,20.006l0,20.914l0,-36.907c0,-17.299 21.137,-26.493 21.137,-26.493c-0,-0 -43.078,-5.056 -52.262,-40.543c-5.992,-23.151 8.092,-39.929 8.092,-39.929c-0,0 -4.25,-22.088 2.235,-37.596c21.299,0 30.238,13.284 30.238,13.284c0,0 12.458,-4.452 27.79,-4.452c15.515,0 24.352,4.452 24.352,4.452c0,0 11.594,-14.623 30.898,-13.284c7.363,14.988 2.922,37.596 2.922,37.596c0,0 19.107,26.408 0,54.999c-14.707,22.007 -42.871,25.473 -42.871,25.473c0,-0 17.698,12.595 18.229,26.493c0.532,13.899 0,36.907 0,36.907" style="fill:none;stroke:#000;stroke-width:22px;"/><path d="M544.785,192.527c0,0 86.272,34.111 134.499,-13.289c44.13,-43.373 34.455,-92.027 34.455,-92.027c0,-0 7.213,-6.193 12.218,-14.798c5.521,-9.494 4.395,-16.479 4.395,-16.479l-24.142,7.524c0,-0 -19.704,-24.331 -50.749,-11.429c-27.699,11.51 -20.428,47.916 -20.428,47.916c-0,-0 -15.34,4.881 -43.932,-8.381c-28.592,-13.263 -39.473,-35.63 -39.473,-35.63c-0,0 -12.106,44.257 4.237,77.914c16.343,33.658 43.76,41.48 43.76,41.48c-0,0 -5.515,6.602 -20.859,11.71c-16.021,5.332 -33.981,5.489 -33.981,5.489Z" style="fill:none;stroke:#000;stroke-width:21px;"/><g id="linkedin"><circle cx="831.376" cy="58.31" r="17.864" style="fill:none;stroke:#000;stroke-width:18px;"/><path d="M877.101,212.213l35.349,0l0,-50.371c0,0 0,-18.341 18.06,-18.341c18.059,0 18.042,18.341 18.042,18.341l-0,50.371l36.197,0l-0,-55.557c-0,-0 -0,-50.826 -54.239,-50.826c-54.24,0 -53.409,50.826 -53.409,50.826l0,55.557Z" style="fill:none;stroke:#000;stroke-width:18px;"/><path d="M813.512,105.83l35.728,0.126l0,106.257l-35.728,0l0,-106.383Z" style="fill:none;stroke:#000;stroke-width:18px;"/></g><path d="M122.849,67.96l-40.363,0c-8.103,0 -15.875,3.22 -21.605,8.95c-5.731,5.73 -8.95,13.502 -8.95,21.606l0,72.556c0,16.875 13.68,30.555 30.555,30.555l72.556,-0c16.875,-0 30.555,-13.68 30.555,-30.555c0,-17.2 0,-35.262 0,-35.262" style="fill:none;stroke:#000;stroke-width:23px;"/><path d="M134.013,120.136l71.246,-67.474l-50.319,-0l50.319,-0l-0,50.416" style="fill:none;stroke:#000;stroke-width:23px;"/><g id="dribbble"><g><circle cx="1153.05" cy="126.595" r="85.618" style="fill:none;stroke:#000;stroke-width:20px;"/></g><path d="M1122.61,50.04c0,-0 31.162,44.196 42.736,68.49c11.923,25.029 28.806,81.681 28.806,81.681" style="fill:none;stroke:#000;stroke-width:20px;stroke-linecap:butt;"/><g><path d="M1209.36,71.041c0,0 -12.357,16.911 -53.755,31.244c-42.65,14.766 -86.851,11.492 -86.851,11.492" style="fill:none;stroke:#000;stroke-width:20px;stroke-linecap:butt;"/></g><g><path d="M1093.9,189.64c-0,0 28.706,-35.733 64.478,-49.761c32.062,-12.575 76.187,-7.278 76.187,-7.278" style="fill:none;stroke:#000;stroke-width:20px;stroke-linecap:butt;"/></g></g></svg>