<?xml version="1.0" encoding="UTF-8" standalone="no"?><!DOCTYPE svg PUBLIC "-//W3C//DTD SVG 1.1//EN" "http://www.w3.org/Graphics/SVG/1.1/DTD/svg11.dtd"><svg width="100%" height="100%" viewBox="0 0 256 256" version="1.1" xmlns="http://www.w3.org/2000/svg" xmlns:xlink="http://www.w3.org/1999/xlink" xml:space="preserve" xmlns:serif="http://www.serif.com/" style="fill-rule:evenodd;clip-rule:evenodd;stroke-miterlimit:10;"><rect id="Artboard3" x="0" y="256" width="256" height="256" style="fill:none;"/><clipPath id="_clip1"><rect x="0" y="256" width="256" height="256"/></clipPath><g clip-path="url(#_clip1)"><clipPath id="_clip2"><rect x="-4.698" y="250.9" width="109.396" height="110.2"/></clipPath><g clip-path="url(#_clip2)"><path d="M11.711,306l28.717,-28.931c2.537,-2.559 5.983,-3.997 9.572,-3.997c3.589,-0 7.035,1.438 9.572,3.997c2.539,2.556 3.966,6.027 3.966,9.642c0,3.616 -1.427,7.087 -3.966,9.643l-19.144,19.285c-2.539,2.556 -3.966,6.027 -3.966,9.642c-0,3.616 1.427,7.087 3.966,9.643c2.537,2.558 5.983,3.997 9.572,3.997c3.589,-0 7.035,-1.439 9.572,-3.997l28.717,-28.924" style="fill:none;fill-rule:nonzero;stroke:#95b8d1;stroke-width:10.98px;"/></g></g><rect id="Burgerbutton" x="256" y="256" width="256" height="256" style="fill:none;"/><rect id="Artboard4" x="0" y="0" width="256" height="256" style="fill:none;"/><path d="M130.168,128.386l-59.846,1.007c-0,-0 -13.837,-37.209 -26.069,-67.638c-2.819,-7.012 -0.956,-15.039 4.663,-20.093c5.619,-5.055 13.797,-6.06 20.473,-2.518c39.228,20.817 96.176,51.037 132.508,70.317c6.86,3.641 11.149,10.772 11.149,18.539c0,7.767 -4.289,14.898 -11.149,18.539c-49.078,26.044 -132.508,70.317 -132.508,70.317c-6.676,3.542 -14.854,2.537 -20.473,-2.518c-5.619,-5.054 -7.482,-13.081 -4.663,-20.093c12.232,-30.429 26.069,-64.852 26.069,-64.852l59.846,-1.007Z" style="fill:none;stroke:#9fc0eb;stroke-width:22.69px;stroke-linejoin:round;stroke-miterlimit:1.5;"/><rect id="Artboard41" serif:id="Artboard4" x="256" y="0" width="256" height="256" style="fill:none;"/><g><rect id="home" x="0" y="-256" width="256" height="256" style="fill:none;"/><rect id="Artboard42" serif:id="Artboard4" x="256" y="-256" width="256" height="256" style="fill:none;"/></g></svg>