<?xml version="1.0" encoding="UTF-8" standalone="no"?><!DOCTYPE svg PUBLIC "-//W3C//DTD SVG 1.1//EN" "http://www.w3.org/Graphics/SVG/1.1/DTD/svg11.dtd"><svg width="100%" height="100%" viewBox="0 0 1067 1067" version="1.1" xmlns="http://www.w3.org/2000/svg" xmlns:xlink="http://www.w3.org/1999/xlink" xml:space="preserve" xmlns:serif="http://www.serif.com/" style="fill-rule:evenodd;clip-rule:evenodd;stroke-miterlimit:10;"><rect id="Artboard3" x="0" y="1066.67" width="1066.67" height="1066.67" style="fill:none;"/><g><g><path d="M48.796,1275l119.654,-120.546c10.571,-10.662 24.929,-16.654 39.883,-16.654c14.955,0 29.313,5.992 39.884,16.654c10.579,10.65 16.525,25.113 16.525,40.175c-0,15.067 -5.946,29.529 -16.525,40.179l-79.767,80.355c-10.579,10.65 -16.525,25.112 -16.525,40.175c0,15.066 5.946,29.529 16.525,40.179c10.571,10.658 24.929,16.654 39.883,16.654c14.955,-0 29.313,-5.996 39.884,-16.654l119.654,-120.517" style="fill:none;fill-rule:nonzero;stroke:#95b8d1;stroke-width:45.75px;"/></g></g><rect id="Burgerbutton" x="1066.67" y="1066.67" width="1066.67" height="1066.67" style="fill:none;"/><rect id="Artboard4" x="0" y="0" width="1066.67" height="1066.67" style="fill:none;"/><path d="M542.367,534.942l-249.359,4.196c0,-0 -57.654,-155.038 -108.62,-281.826c-11.746,-29.216 -3.984,-62.662 19.429,-83.72c23.412,-21.063 57.487,-25.25 85.304,-10.492c163.45,86.737 400.733,212.654 552.117,292.987c28.583,15.171 46.454,44.884 46.454,77.246c-0,32.363 -17.871,62.075 -46.454,77.246c-204.492,108.517 -552.117,292.988 -552.117,292.988c-27.817,14.758 -61.892,10.571 -85.304,-10.492c-23.413,-21.058 -31.175,-54.504 -19.429,-83.721c50.966,-126.787 108.62,-270.217 108.62,-270.217l249.359,-4.195Z" style="fill:none;stroke:#9fc0eb;stroke-width:94.54px;stroke-linejoin:round;stroke-miterlimit:1.5;"/><rect id="Artboard41" serif:id="Artboard4" x="1066.67" y="0" width="1066.67" height="1066.67" style="fill:none;"/><g><rect id="home" x="0" y="-1066.67" width="1066.67" height="1066.67" style="fill:none;"/><rect id="Artboard42" serif:id="Artboard4" x="1066.67" y="-1066.67" width="1066.67" height="1066.67" style="fill:none;"/></g></svg>