<?xml version="1.0" encoding="UTF-8" standalone="no"?><!DOCTYPE svg PUBLIC "-//W3C//DTD SVG 1.1//EN" "http://www.w3.org/Graphics/SVG/1.1/DTD/svg11.dtd"><svg width="100%" height="100%" viewBox="0 0 256 256" version="1.1" xmlns="http://www.w3.org/2000/svg" xmlns:xlink="http://www.w3.org/1999/xlink" xml:space="preserve" xmlns:serif="http://www.serif.com/" style="fill-rule:evenodd;clip-rule:evenodd;stroke-linejoin:round;stroke-miterlimit:1.5;"><rect id="Artboard4" x="0" y="-0" width="256" height="256" style="fill:none;"/><path d="M120.321,128.309l-47.26,0.808c0,-0 -10.927,-29.842 -20.586,-54.247c-2.226,-5.625 -0.755,-12.062 3.682,-16.116c4.437,-4.054 10.896,-4.86 16.168,-2.019c28.662,15.448 69.305,37.353 97.947,52.79c6.794,3.662 11.03,10.757 11.03,18.475c0,7.718 -4.236,14.813 -11.03,18.475c-39.178,21.116 -97.947,52.79 -97.947,52.79c-5.272,2.841 -11.731,2.035 -16.168,-2.019c-4.437,-4.054 -5.908,-10.491 -3.682,-16.116c9.659,-24.405 20.586,-52.013 20.586,-52.013l47.26,-0.808Z" style="fill:none;stroke:#9fc0eb;stroke-width:25px;"/></svg>