<?xml version="1.0" encoding="UTF-8" standalone="no"?><!DOCTYPE svg PUBLIC "-//W3C//DTD SVG 1.1//EN" "http://www.w3.org/Graphics/SVG/1.1/DTD/svg11.dtd"><svg width="100%" height="100%" viewBox="0 0 4446 4446" version="1.1" xmlns="http://www.w3.org/2000/svg" xmlns:xlink="http://www.w3.org/1999/xlink" xml:space="preserve" xmlns:serif="http://www.serif.com/" style="fill-rule:evenodd;clip-rule:evenodd;stroke-linejoin:round;stroke-miterlimit:1.5;"><path d="M2116.95,2236.36l-629.976,10.6c-0,-0 -177.625,-517.055 -345.997,-935.913c-38.804,-96.519 -13.162,-207.011 64.186,-276.579c77.344,-69.584 189.914,-83.416 281.811,-34.661c539.975,286.545 1323.87,702.526 1823.98,967.914c94.427,50.119 153.466,148.28 153.466,255.191c-0,106.915 -59.039,205.072 -153.466,255.191c-675.562,358.497 -1823.98,967.917 -1823.98,967.917c-91.897,48.755 -204.467,34.923 -281.811,-34.661c-77.348,-69.567 -102.99,-180.06 -64.186,-276.581c168.372,-418.855 345.997,-887.822 345.997,-887.822l629.976,-10.596Z" style="fill:none;stroke:#9fc0eb;stroke-width:312.32px;"/></svg>