<?xml version="1.0" encoding="UTF-8" standalone="no"?>
<!DOCTYPE svg PUBLIC "-//W3C//DTD SVG 1.1//EN" "http://www.w3.org/Graphics/SVG/1.1/DTD/svg11.dtd">
<svg width="100%" height="100%" viewBox="0 0 256 256" version="1.1" xmlns="http://www.w3.org/2000/svg" xmlns:xlink="http://www.w3.org/1999/xlink" xml:space="preserve" xmlns:serif="http://www.serif.com/" style="fill-rule:evenodd;clip-rule:evenodd;stroke-linecap:round;stroke-linejoin:round;stroke-miterlimit:1.5;">
    <g transform="matrix(1,0,0,1,-1024,-178)">
        <g id="Artboard2" transform="matrix(16.4815,0,0,12.6774,3120.73,267.909)">
            <rect x="-189.347" y="-7.167" width="138.375" height="180.325" style="fill:none;"/>
            <g id="linkedin">
            </g>
            <g id="dribbble">
                <g transform="matrix(0.0528625,0,0,0.0687249,-129.963,-12.4541)">
                    <circle cx="200.084" cy="222.233" r="98.27" style="fill:none;stroke:black;stroke-width:22.96px;"/>
                </g>
                <g transform="matrix(0.0578906,0,0,0.0752619,-141.22,-16.6008)">
                    <path d="M345.242,177.792C345.242,177.792 377.902,224.113 390.032,249.575C402.528,275.807 420.223,335.183 420.223,335.183" style="fill:none;stroke:black;stroke-width:20.96px;stroke-linecap:butt;"/>
                </g>
                <g transform="matrix(1.77239e-17,0.0752619,-0.0578906,2.30423e-17,-105.677,-27.5468)">
                    <path d="M345.242,177.792C345.242,177.792 362.966,190.743 377.988,234.132C393.464,278.832 390.032,325.159 390.032,325.159" style="fill:none;stroke:black;stroke-width:20.96px;stroke-linecap:butt;"/>
                </g>
                <g transform="matrix(-1.77239e-17,-0.0752619,0.0578906,-2.30423e-17,-133.265,32.3566)">
                    <path d="M326.39,177.731C326.39,177.731 363.841,207.818 378.544,245.309C391.723,278.913 386.171,325.159 386.171,325.159" style="fill:none;stroke:black;stroke-width:20.96px;stroke-linecap:butt;"/>
                </g>
            </g>
        </g>
    </g>
</svg>
