<?xml version="1.0" encoding="UTF-8" standalone="no"?><!DOCTYPE svg PUBLIC "-//W3C//DTD SVG 1.1//EN" "http://www.w3.org/Graphics/SVG/1.1/DTD/svg11.dtd"><svg width="100%" height="100%" viewBox="0 0 256 256" version="1.1" xmlns="http://www.w3.org/2000/svg" xmlns:xlink="http://www.w3.org/1999/xlink" xml:space="preserve" xmlns:serif="http://www.serif.com/" style="fill-rule:evenodd;clip-rule:evenodd;stroke-linejoin:round;stroke-miterlimit:1.5;"><rect id="qualification" x="0" y="-0" width="256" height="256" style="fill:none;"/><g><path d="M206.868,115.848c-0,-12.028 -9.751,-21.779 -21.779,-21.779c-30.095,0 -84.083,0 -114.178,0c-12.028,0 -21.779,9.751 -21.779,21.779c0,15.496 0,36.232 0,51.729c0,12.028 9.751,21.778 21.779,21.778c30.095,0 84.083,0 114.178,0c12.028,0 21.779,-9.75 21.779,-21.778c-0,-15.497 -0,-36.233 -0,-51.729Z" style="fill:none;stroke:#9fc0eb;stroke-width:21px;"/><path d="M165.778,74.107c0,-1.979 -0.786,-3.877 -2.186,-5.277c-1.399,-1.399 -3.297,-2.185 -5.276,-2.185c-14.465,-0 -46.167,-0 -60.632,-0c-1.979,-0 -3.877,0.786 -5.276,2.185c-1.4,1.4 -2.186,3.298 -2.186,5.277c-0,8.121 -0,19.962 -0,19.962l75.556,0l0,-19.962Z" style="fill:none;stroke:#9fc0eb;stroke-width:21px;"/><path d="M49.132,138.822l157.736,-0.08" style="fill:none;stroke:#9fc0eb;stroke-width:21px;"/><path d="M86.693,126.382l0,24.72" style="fill:none;stroke:#9fc0eb;stroke-width:21px;stroke-linecap:round;"/><path d="M165.778,126.382l0,24.72" style="fill:none;stroke:#9fc0eb;stroke-width:21px;stroke-linecap:round;"/></g></svg>