<?xml version="1.0" encoding="UTF-8" standalone="no"?><!DOCTYPE svg PUBLIC "-//W3C//DTD SVG 1.1//EN" "http://www.w3.org/Graphics/SVG/1.1/DTD/svg11.dtd"><svg width="100%" height="100%" viewBox="0 0 1067 1067" version="1.1" xmlns="http://www.w3.org/2000/svg" xmlns:xlink="http://www.w3.org/1999/xlink" xml:space="preserve" xmlns:serif="http://www.serif.com/" style="fill-rule:evenodd;clip-rule:evenodd;stroke-linejoin:round;stroke-miterlimit:1.5;"><g><path d="M861.95,482.7c0,-50.117 -40.629,-90.746 -90.746,-90.746l-475.742,0c-50.116,0 -90.745,40.629 -90.745,90.746l-0,215.538c-0,50.116 40.629,90.741 90.745,90.741l475.742,0c50.117,0 90.746,-40.625 90.746,-90.741l0,-215.538Z" style="fill:none;stroke:#9fc0eb;stroke-width:87.5px;"/><path d="M690.742,287.946c-0,-8.246 -3.275,-16.154 -9.109,-21.988c-5.829,-5.829 -13.737,-9.104 -21.983,-9.104l-252.633,0c-8.246,0 -16.155,3.275 -21.984,9.104c-5.833,5.834 -9.108,13.742 -9.108,21.988l0,104.008l314.817,0l-0,-104.008Z" style="fill:none;stroke:#9fc0eb;stroke-width:87.5px;"/></g></svg>