<?xml version="1.0" encoding="UTF-8" standalone="no"?><!DOCTYPE svg PUBLIC "-//W3C//DTD SVG 1.1//EN" "http://www.w3.org/Graphics/SVG/1.1/DTD/svg11.dtd"><svg width="100%" height="100%" viewBox="0 0 256 256" version="1.1" xmlns="http://www.w3.org/2000/svg" xmlns:xlink="http://www.w3.org/1999/xlink" xml:space="preserve" xmlns:serif="http://www.serif.com/" style="fill-rule:evenodd;clip-rule:evenodd;stroke-linecap:round;stroke-linejoin:round;stroke-miterlimit:1.5;"><rect id="Globe" x="-5" y="-0" width="261" height="256" style="fill:none;"/><g><g><g><path d="M126.075,192.702l0.122,-0c35.71,-0 64.702,-28.992 64.702,-64.702c0,-35.71 -28.992,-64.702 -64.702,-64.702c-0.2,0 -0.4,0.001 -0.596,0.003c19.162,11.413 33.798,32.521 33.798,64.699c0,31.912 -14.409,53.061 -33.324,64.702Z" style="fill:none;stroke:#9fc0eb;stroke-width:18px;"/><path d="M124.925,192.702l-0.122,-0c-35.71,-0 -64.702,-28.992 -64.702,-64.702c-0,-35.71 28.992,-64.702 64.702,-64.702c0.2,0 0.4,0.001 0.596,0.003c-19.162,11.413 -33.798,32.521 -33.798,64.699c-0,31.912 14.409,53.061 33.324,64.702Z" style="fill:none;stroke:#9fc0eb;stroke-width:18px;"/></g><path d="M60.899,128l130,-0" style="fill:none;stroke:#9fc0eb;stroke-width:18px;"/></g></g></svg>