<svg width="160" height="64" viewBox="0 0 160 64" fill="none" xmlns="http://www.w3.org/2000/svg">
<path d="M131.568 23C131.316 23 131.07 22.9999 130.862 23.017C130.633 23.0356 130.363 23.0797 130.092 23.218C129.716 23.4097 129.41 23.7157 129.218 24.092C129.08 24.3634 129.036 24.6332 129.017 24.8618C129 25.0699 129 25.3157 129 25.5681V30.4319C129 30.6843 129 30.9301 129.017 31.1382C129.036 31.3668 129.08 31.6366 129.218 31.908C129.41 32.2843 129.716 32.5903 130.092 32.782C130.363 32.9203 130.633 32.9644 130.862 32.9831C131.07 33.0001 131.316 33 131.568 33H134.432C134.684 33 134.93 33.0001 135.138 32.9831C135.367 32.9644 135.637 32.9203 135.908 32.782C136.284 32.5903 136.59 32.2843 136.782 31.908C136.92 31.6366 136.964 31.3668 136.983 31.1382C137 30.9301 137 30.6843 137 30.4319V25.5681C137 25.3157 137 25.0699 136.983 24.8618C136.964 24.6332 136.92 24.3634 136.782 24.092C136.59 23.7157 136.284 23.4097 135.908 23.218C135.637 23.0797 135.367 23.0356 135.138 23.017C134.93 22.9999 134.684 23 134.432 23L131.568 23Z" fill="#12131A" fill-opacity="0.25"/>
<path d="M121.568 31C121.316 31 121.07 30.9999 120.862 31.017C120.633 31.0356 120.363 31.0797 120.092 31.218C119.716 31.4097 119.41 31.7157 119.218 32.092C119.08 32.3634 119.036 32.6332 119.017 32.8618C119 33.0699 119 33.3157 119 33.5681L119 38.4319C119 38.6843 119 38.9301 119.017 39.1382C119.036 39.3668 119.08 39.6366 119.218 39.908C119.41 40.2843 119.716 40.5903 120.092 40.782C120.363 40.9203 120.633 40.9644 120.862 40.9831C121.07 41.0001 121.316 41 121.568 41H124.432C124.684 41 124.93 41.0001 125.138 40.9831C125.367 40.9644 125.637 40.9203 125.908 40.782C126.284 40.5903 126.59 40.2843 126.782 39.908C126.92 39.6366 126.964 39.3668 126.983 39.1382C127 38.9301 127 38.6843 127 38.4319V33.5681C127 33.3157 127 33.0699 126.983 32.8618C126.964 32.6332 126.92 32.3634 126.782 32.092C126.59 31.7157 126.284 31.4097 125.908 31.218C125.637 31.0797 125.367 31.0356 125.138 31.017C124.93 30.9999 124.684 31 124.432 31H121.568Z" fill="#12131A" fill-opacity="0.25"/>
<path d="M121.568 23C121.316 23 121.07 22.9999 120.862 23.017C120.633 23.0356 120.363 23.0797 120.092 23.218C119.716 23.4097 119.41 23.7157 119.218 24.092C119.08 24.3634 119.036 24.6332 119.017 24.8618C119 25.0699 119 25.3157 119 25.5681L119 26.4319C119 26.6843 119 26.9301 119.017 27.1382C119.036 27.3668 119.08 27.6366 119.218 27.908C119.41 28.2843 119.716 28.5903 120.092 28.782C120.363 28.9203 120.633 28.9644 120.862 28.9831C121.07 29.0001 121.316 29 121.568 29H124.432C124.684 29 124.93 29.0001 125.138 28.9831C125.367 28.9644 125.637 28.9203 125.908 28.782C126.284 28.5903 126.59 28.2843 126.782 27.908C126.92 27.6366 126.964 27.3668 126.983 27.1382C127 26.9301 127 26.6843 127 26.4319V25.5681C127 25.3157 127 25.0699 126.983 24.8618C126.964 24.6332 126.92 24.3634 126.782 24.092C126.59 23.7157 126.284 23.4097 125.908 23.218C125.637 23.0797 125.367 23.0356 125.138 23.017C124.93 22.9999 124.684 23 124.432 23L121.568 23Z" fill="#12131A"/>
<path d="M131.568 35C131.316 35 131.07 34.9999 130.862 35.017C130.633 35.0356 130.363 35.0797 130.092 35.218C129.716 35.4097 129.41 35.7157 129.218 36.092C129.08 36.3634 129.036 36.6332 129.017 36.8618C129 37.0699 129 37.3157 129 37.5681V38.4319C129 38.6843 129 38.9301 129.017 39.1382C129.036 39.3668 129.08 39.6366 129.218 39.908C129.41 40.2843 129.716 40.5903 130.092 40.782C130.363 40.9203 130.633 40.9644 130.862 40.9831C131.07 41.0001 131.316 41 131.568 41H134.432C134.684 41 134.93 41.0001 135.138 40.9831C135.367 40.9644 135.637 40.9203 135.908 40.782C136.284 40.5903 136.59 40.2843 136.782 39.908C136.92 39.6366 136.964 39.3668 136.983 39.1382C137 38.9301 137 38.6843 137 38.4319V37.5681C137 37.3157 137 37.0699 136.983 36.8618C136.964 36.6332 136.92 36.3634 136.782 36.092C136.59 35.7157 136.284 35.4097 135.908 35.218C135.637 35.0797 135.367 35.0356 135.138 35.017C134.93 34.9999 134.684 35 134.432 35H131.568Z" fill="#12131A"/>
<path d="M83.5681 23C83.3157 23 83.0699 22.9999 82.8618 23.017C82.6332 23.0356 82.3634 23.0797 82.092 23.218C81.7157 23.4097 81.4097 23.7157 81.218 24.092C81.0797 24.3634 81.0356 24.6332 81.017 24.8618C80.9999 25.0699 81 25.3157 81 25.5681V30.4319C81 30.6843 80.9999 30.9301 81.017 31.1382C81.0356 31.3668 81.0797 31.6366 81.218 31.908C81.4097 32.2843 81.7157 32.5903 82.092 32.782C82.3634 32.9203 82.6332 32.9644 82.8618 32.9831C83.0699 33.0001 83.3157 33 83.5681 33H86.4319C86.6843 33 86.9301 33.0001 87.1382 32.9831C87.3668 32.9644 87.6366 32.9203 87.908 32.782C88.2843 32.5903 88.5903 32.2843 88.782 31.908C88.9203 31.6366 88.9644 31.3668 88.9831 31.1382C89.0001 30.9301 89 30.6843 89 30.4319V25.5681C89 25.3157 89.0001 25.0699 88.9831 24.8618C88.9644 24.6332 88.9203 24.3634 88.782 24.092C88.5903 23.7157 88.2843 23.4097 87.908 23.218C87.6366 23.0797 87.3668 23.0356 87.1382 23.017C86.9301 22.9999 86.6843 23 86.4319 23L83.5681 23Z" fill="#12131A"/>
<path d="M73.5681 31C73.3157 31 73.0699 30.9999 72.8618 31.017C72.6332 31.0356 72.3634 31.0797 72.092 31.218C71.7157 31.4097 71.4097 31.7157 71.218 32.092C71.0797 32.3634 71.0356 32.6332 71.017 32.8618C70.9999 33.0699 71 33.3157 71 33.5681L71 38.4319C71 38.6843 70.9999 38.9301 71.017 39.1382C71.0356 39.3668 71.0797 39.6366 71.218 39.908C71.4097 40.2843 71.7157 40.5903 72.092 40.782C72.3634 40.9203 72.6332 40.9644 72.8618 40.9831C73.0699 41.0001 73.3157 41 73.5681 41H76.4319C76.6843 41 76.9301 41.0001 77.1382 40.9831C77.3668 40.9644 77.6366 40.9203 77.908 40.782C78.2843 40.5903 78.5903 40.2843 78.782 39.908C78.9203 39.6366 78.9644 39.3668 78.9831 39.1382C79.0001 38.9301 79 38.6843 79 38.4319V33.5681C79 33.3157 79.0001 33.0699 78.9831 32.8618C78.9644 32.6332 78.9203 32.3634 78.782 32.092C78.5903 31.7157 78.2843 31.4097 77.908 31.218C77.6366 31.0797 77.3668 31.0356 77.1382 31.017C76.9301 30.9999 76.6843 31 76.4319 31H73.5681Z" fill="#12131A"/>
<path d="M73.5681 23C73.3157 23 73.0699 22.9999 72.8618 23.017C72.6332 23.0356 72.3634 23.0797 72.092 23.218C71.7157 23.4097 71.4097 23.7157 71.218 24.092C71.0797 24.3634 71.0356 24.6332 71.017 24.8618C70.9999 25.0699 71 25.3157 71 25.5681L71 26.4319C71 26.6843 70.9999 26.9301 71.017 27.1382C71.0356 27.3668 71.0797 27.6366 71.218 27.908C71.4097 28.2843 71.7157 28.5903 72.092 28.782C72.3634 28.9203 72.6332 28.9644 72.8618 28.9831C73.0699 29.0001 73.3157 29 73.5681 29H76.4319C76.6843 29 76.9301 29.0001 77.1382 28.9831C77.3668 28.9644 77.6366 28.9203 77.908 28.782C78.2843 28.5903 78.5903 28.2843 78.782 27.908C78.9203 27.6366 78.9644 27.3668 78.9831 27.1382C79.0001 26.9301 79 26.6843 79 26.4319V25.5681C79 25.3157 79.0001 25.0699 78.9831 24.8618C78.9644 24.6332 78.9203 24.3634 78.782 24.092C78.5903 23.7157 78.2843 23.4097 77.908 23.218C77.6366 23.0797 77.3668 23.0356 77.1382 23.017C76.9301 22.9999 76.6843 23 76.4319 23L73.5681 23Z" fill="#12131A"/>
<path d="M83.5681 35C83.3157 35 83.0699 34.9999 82.8618 35.017C82.6332 35.0356 82.3634 35.0797 82.092 35.218C81.7157 35.4097 81.4097 35.7157 81.218 36.092C81.0797 36.3634 81.0356 36.6332 81.017 36.8618C80.9999 37.0699 81 37.3157 81 37.5681V38.4319C81 38.6843 80.9999 38.9301 81.017 39.1382C81.0356 39.3668 81.0797 39.6366 81.218 39.908C81.4097 40.2843 81.7157 40.5903 82.092 40.782C82.3634 40.9203 82.6332 40.9644 82.8618 40.9831C83.0699 41.0001 83.3157 41 83.5681 41H86.4319C86.6843 41 86.9301 41.0001 87.1382 40.9831C87.3668 40.9644 87.6366 40.9203 87.908 40.782C88.2843 40.5903 88.5903 40.2843 88.782 39.908C88.9203 39.6366 88.9644 39.3668 88.9831 39.1382C89.0001 38.9301 89 38.6843 89 38.4319V37.5681C89 37.3157 89.0001 37.0699 88.9831 36.8618C88.9644 36.6332 88.9203 36.3634 88.782 36.092C88.5903 35.7157 88.2843 35.4097 87.908 35.218C87.6366 35.0797 87.3668 35.0356 87.1382 35.017C86.9301 34.9999 86.6843 35 86.4319 35H83.5681Z" fill="#12131A"/>
<path fill-rule="evenodd" clip-rule="evenodd" d="M37.032 23H36.968C36.5294 23 36.1509 23 35.8376 23.0214C35.5078 23.0439 35.1779 23.0934 34.852 23.2284C34.1169 23.5328 33.5328 24.1169 33.2284 24.852C33.0934 25.1779 33.0439 25.5078 33.0214 25.8376C33 26.1509 33 26.5293 33 26.968V29.032C33 29.4706 33 29.8491 33.0214 30.1624C33.0439 30.4922 33.0934 30.8221 33.2284 31.1481C33.5328 31.8831 34.1169 32.4672 34.852 32.7716C35.1779 32.9066 35.5078 32.9561 35.8376 32.9787C36.1509 33 36.5293 33 36.968 33H37.032C37.4706 33 37.8491 33 38.1624 32.9787C38.4922 32.9561 38.8221 32.9066 39.1481 32.7716C39.8831 32.4672 40.4672 31.8831 40.7716 31.1481C40.9066 30.8221 40.9561 30.4922 40.9787 30.1624C41 29.8491 41 29.4706 41 29.032V26.968C41 26.5294 41 26.1509 40.9787 25.8376C40.9561 25.5078 40.9066 25.1779 40.7716 24.852C40.4672 24.1169 39.8831 23.5328 39.1481 23.2284C38.8221 23.0934 38.4922 23.0439 38.1624 23.0214C37.8491 23 37.4706 23 37.032 23ZM35.6173 25.0761C35.6589 25.0589 35.7458 25.0323 35.9738 25.0167C36.2107 25.0005 36.5204 25 37 25C37.4796 25 37.7893 25.0005 38.0262 25.0167C38.2542 25.0323 38.3411 25.0589 38.3827 25.0761C38.6277 25.1776 38.8224 25.3723 38.9239 25.6173C38.9411 25.6589 38.9677 25.7458 38.9833 25.9738C38.9995 26.2107 39 26.5204 39 27V29C39 29.4796 38.9995 29.7893 38.9833 30.0262C38.9677 30.2542 38.9411 30.3411 38.9239 30.3827C38.8224 30.6277 38.6277 30.8224 38.3827 30.9239C38.3411 30.9411 38.2542 30.9677 38.0262 30.9833C37.7893 30.9995 37.4796 31 37 31C36.5204 31 36.2107 30.9995 35.9738 30.9833C35.7458 30.9677 35.6589 30.9411 35.6173 30.9239C35.3723 30.8224 35.1776 30.6277 35.0761 30.3827C35.0589 30.3411 35.0323 30.2542 35.0167 30.0262C35.0005 29.7893 35 29.4796 35 29V27C35 26.5204 35.0005 26.2107 35.0167 25.9738C35.0323 25.7458 35.0589 25.6589 35.0761 25.6173C35.1776 25.3723 35.3723 25.1776 35.6173 25.0761Z" fill="#12131A"/>
<path fill-rule="evenodd" clip-rule="evenodd" d="M27.032 31H26.968C26.5294 31 26.1509 31 25.8376 31.0214C25.5078 31.0439 25.1779 31.0934 24.852 31.2284C24.1169 31.5328 23.5328 32.1169 23.2284 32.852C23.0934 33.1779 23.0439 33.5078 23.0214 33.8376C23 34.1509 23 34.5293 23 34.968V37.032C23 37.4706 23 37.8491 23.0214 38.1624C23.0439 38.4922 23.0934 38.8221 23.2284 39.1481C23.5328 39.8831 24.1169 40.4672 24.852 40.7716C25.1779 40.9066 25.5078 40.9561 25.8376 40.9787C26.1509 41 26.5294 41 26.968 41H27.032C27.4706 41 27.8491 41 28.1624 40.9787C28.4922 40.9561 28.8221 40.9066 29.1481 40.7716C29.8831 40.4672 30.4672 39.8831 30.7716 39.1481C30.9066 38.8221 30.9561 38.4922 30.9787 38.1624C31 37.8491 31 37.4707 31 37.032V34.968C31 34.5294 31 34.1509 30.9787 33.8376C30.9561 33.5078 30.9066 33.1779 30.7716 32.852C30.4672 32.1169 29.8831 31.5328 29.1481 31.2284C28.8221 31.0934 28.4922 31.0439 28.1624 31.0214C27.8491 31 27.4706 31 27.032 31ZM25.6173 33.0761C25.6589 33.0589 25.7458 33.0323 25.9738 33.0167C26.2107 33.0005 26.5204 33 27 33C27.4796 33 27.7893 33.0005 28.0262 33.0167C28.2542 33.0323 28.3411 33.0589 28.3827 33.0761C28.6277 33.1776 28.8224 33.3723 28.9239 33.6173C28.9411 33.6589 28.9677 33.7458 28.9833 33.9738C28.9995 34.2107 29 34.5204 29 35V37C29 37.4796 28.9995 37.7893 28.9833 38.0262C28.9677 38.2542 28.9411 38.3411 28.9239 38.3827C28.8224 38.6277 28.6277 38.8224 28.3827 38.9239C28.3411 38.9411 28.2542 38.9677 28.0262 38.9833C27.7893 38.9995 27.4796 39 27 39C26.5204 39 26.2107 38.9995 25.9738 38.9833C25.7458 38.9677 25.6589 38.9411 25.6173 38.9239C25.3723 38.8224 25.1776 38.6277 25.0761 38.3827C25.0589 38.3411 25.0323 38.2542 25.0167 38.0262C25.0005 37.7893 25 37.4796 25 37V35C25 34.5204 25.0005 34.2107 25.0167 33.9738C25.0323 33.7458 25.0589 33.6589 25.0761 33.6173C25.1776 33.3723 25.3723 33.1776 25.6173 33.0761Z" fill="#12131A"/>
<path fill-rule="evenodd" clip-rule="evenodd" d="M26 23C24.3431 23 23 24.3431 23 26C23 27.6569 24.3431 29 26 29H28C29.6569 29 31 27.6569 31 26C31 24.3431 29.6569 23 28 23H26ZM25 26C25 25.4477 25.4477 25 26 25H28C28.5523 25 29 25.4477 29 26C29 26.5523 28.5523 27 28 27H26C25.4477 27 25 26.5523 25 26Z" fill="#12131A"/>
<path fill-rule="evenodd" clip-rule="evenodd" d="M36 35C34.3431 35 33 36.3431 33 38C33 39.6569 34.3431 41 36 41H38C39.6569 41 41 39.6569 41 38C41 36.3431 39.6569 35 38 35H36ZM35 38C35 37.4477 35.4477 37 36 37H38C38.5523 37 39 37.4477 39 38C39 38.5523 38.5523 39 38 39H36C35.4477 39 35 38.5523 35 38Z" fill="#12131A"/>
<rect x="0.5" y="0.5" width="159" height="63" stroke="#004DE5" stroke-dasharray="10 5"/>
</svg>
