<svg width="52" height="49" viewBox="0 0 52 49" fill="none" xmlns="http://www.w3.org/2000/svg">
<path fill-rule="evenodd" clip-rule="evenodd" d="M36.4037 6.125H36.2669C35.3294 6.12498 34.5204 6.12496 33.8509 6.16859C33.1459 6.21454 32.4407 6.31561 31.7441 6.59124C30.173 7.21289 28.9247 8.40527 28.2739 9.90607C27.9854 10.5715 27.8795 11.2451 27.8314 11.9185C27.7858 12.558 27.7858 13.3307 27.7858 14.2263V14.357C27.7858 15.2525 27.7858 16.0253 27.8314 16.6649C27.8795 17.3383 27.9854 18.0118 28.2739 18.6773C28.9247 20.1781 30.173 21.3705 31.7441 21.9921C32.4407 22.2677 33.1459 22.3688 33.8509 22.4147C34.5204 22.4584 35.3293 22.4584 36.2668 22.4583H36.4037C37.3412 22.4584 38.1502 22.4584 38.8197 22.4147C39.5247 22.3688 40.2298 22.2677 40.9265 21.9921C42.4976 21.3705 43.7459 20.1781 44.3967 18.6773C44.6852 18.0118 44.791 17.3383 44.8391 16.6649C44.8848 16.0253 44.8848 15.2526 44.8848 14.357V14.2264C44.8848 13.3308 44.8848 12.558 44.8391 11.9185C44.791 11.2451 44.6852 10.5715 44.3967 9.90607C43.7459 8.40527 42.4976 7.21289 40.9265 6.59124C40.2298 6.31561 39.5247 6.21454 38.8197 6.16859C38.1502 6.12496 37.3412 6.12498 36.4037 6.125ZM33.38 10.3637C33.4689 10.3286 33.6545 10.2742 34.1418 10.2425C34.6484 10.2094 35.3102 10.2083 36.3353 10.2083C37.3604 10.2083 38.0222 10.2094 38.5287 10.2425C39.0161 10.2742 39.2017 10.3286 39.2906 10.3637C39.8143 10.571 40.2304 10.9684 40.4473 11.4687C40.4842 11.5537 40.5411 11.7309 40.5743 12.1964C40.6089 12.6803 40.61 13.3124 40.61 14.2917C40.61 15.2709 40.6089 15.9031 40.5743 16.3869C40.5411 16.8524 40.4842 17.0297 40.4473 17.1146C40.2304 17.6149 39.8143 18.0124 39.2906 18.2196C39.2017 18.2548 39.0161 18.3091 38.5287 18.3409C38.0222 18.3739 37.3604 18.375 36.3353 18.375C35.3102 18.375 34.6484 18.3739 34.1418 18.3409C33.6545 18.3091 33.4689 18.2548 33.38 18.2196C32.8563 18.0124 32.4402 17.6149 32.2233 17.1146C32.1864 17.0297 32.1295 16.8524 32.0963 16.3869C32.0617 15.9031 32.0606 15.2709 32.0606 14.2917C32.0606 13.3124 32.0617 12.6803 32.0963 12.1964C32.1295 11.7309 32.1864 11.5537 32.2233 11.4687C32.4402 10.9684 32.8563 10.571 33.38 10.3637Z" fill="#95B8D1"/>
<path fill-rule="evenodd" clip-rule="evenodd" d="M14.8932 26.5417H15.03C15.9675 26.5416 16.7765 26.5416 17.446 26.5853C18.151 26.6312 18.8561 26.7323 19.5528 27.0079C21.1239 27.6296 22.3722 28.8219 23.023 30.3227C23.3115 30.9882 23.4173 31.6617 23.4654 32.3351C23.5111 32.9747 23.5111 33.7474 23.5111 34.6429V34.7737C23.5111 35.6692 23.5111 36.442 23.4654 37.0815C23.4173 37.7549 23.3115 38.4285 23.023 39.0939C22.3722 40.5947 21.1239 41.7871 19.5528 42.4088C18.8561 42.6844 18.151 42.7855 17.446 42.8314C16.7765 42.8751 15.9675 42.875 15.03 42.875H14.8932C13.9557 42.875 13.1467 42.8751 12.4772 42.8314C11.7722 42.7855 11.067 42.6844 10.3704 42.4088C8.79927 41.7871 7.551 40.5947 6.90021 39.0939C6.61165 38.4285 6.50585 37.7549 6.45775 37.0815C6.41206 36.442 6.41209 35.6693 6.41211 34.7737V34.643C6.41209 33.7475 6.41206 32.9747 6.45775 32.3351C6.50585 31.6617 6.61165 30.9882 6.90021 30.3227C7.551 28.8219 8.79927 27.6296 10.3704 27.0079C11.067 26.7323 11.7722 26.6312 12.4772 26.5853C13.1467 26.5416 13.9557 26.5416 14.8932 26.5417ZM12.7681 30.6591C12.2808 30.6909 12.0952 30.7452 12.0063 30.7804C11.4826 30.9876 11.0665 31.3851 10.8496 31.8854C10.8127 31.9703 10.7558 32.1476 10.7226 32.6131C10.688 33.0969 10.6869 33.7291 10.6869 34.7083C10.6869 35.6876 10.688 36.3197 10.7226 36.8036C10.7558 37.2691 10.8127 37.4464 10.8496 37.5313C11.0665 38.0316 11.4826 38.429 12.0063 38.6363C12.0952 38.6715 12.2808 38.7258 12.7681 38.7576C13.2747 38.7906 13.9365 38.7917 14.9616 38.7917C15.9867 38.7917 16.6485 38.7906 17.155 38.7576C17.6424 38.7258 17.828 38.6715 17.9169 38.6363C18.4406 38.429 18.8567 38.0316 19.0736 37.5313C19.1105 37.4464 19.1674 37.2691 19.2006 36.8036C19.2352 36.3197 19.2363 35.6876 19.2363 34.7083C19.2363 33.7291 19.2352 33.0969 19.2006 32.6131C19.1674 32.1476 19.1105 31.9703 19.0736 31.8854C18.8567 31.3851 18.4406 30.9876 17.9169 30.7804C17.828 30.7452 17.6424 30.6909 17.155 30.6591C16.6485 30.6261 15.9867 30.625 14.9616 30.625C13.9365 30.625 13.2747 30.6261 12.7681 30.6591Z" fill="#95B8D1"/>
<path fill-rule="evenodd" clip-rule="evenodd" d="M36.2669 26.5417H36.4037C37.3412 26.5416 38.1502 26.5416 38.8197 26.5853C39.5247 26.6312 40.2298 26.7323 40.9265 27.0079C42.4976 27.6296 43.7459 28.8219 44.3967 30.3227C44.6852 30.9882 44.791 31.6617 44.8391 32.3351C44.8848 32.9747 44.8848 33.7475 44.8848 34.643V34.7737C44.8848 35.6692 44.8848 36.442 44.8391 37.0815C44.791 37.7549 44.6852 38.4285 44.3967 39.0939C43.7459 40.5947 42.4976 41.7871 40.9265 42.4088C40.2298 42.6844 39.5247 42.7855 38.8197 42.8314C38.1502 42.8751 37.3412 42.875 36.4037 42.875H36.2669C35.3294 42.875 34.5204 42.8751 33.8509 42.8314C33.1459 42.7855 32.4407 42.6844 31.7441 42.4088C30.173 41.7871 28.9247 40.5947 28.2739 39.0939C27.9854 38.4285 27.8795 37.7549 27.8314 37.0815C27.7858 36.442 27.7858 35.6693 27.7858 34.7737V34.643C27.7858 33.7475 27.7858 32.9747 27.8314 32.3351C27.8795 31.6617 27.9854 30.9882 28.2739 30.3227C28.9247 28.8219 30.173 27.6296 31.7441 27.0079C32.4407 26.7323 33.1459 26.6312 33.8509 26.5853C34.5204 26.5416 35.3294 26.5416 36.2669 26.5417ZM34.1418 30.6591C33.6545 30.6909 33.4689 30.7452 33.38 30.7804C32.8563 30.9876 32.4402 31.3851 32.2233 31.8854C32.1864 31.9703 32.1295 32.1476 32.0963 32.6131C32.0617 33.0969 32.0606 33.7291 32.0606 34.7083C32.0606 35.6876 32.0617 36.3197 32.0963 36.8036C32.1295 37.2691 32.1864 37.4464 32.2233 37.5313C32.4402 38.0316 32.8563 38.429 33.38 38.6363C33.4689 38.6715 33.6545 38.7258 34.1418 38.7576C34.6484 38.7906 35.3102 38.7917 36.3353 38.7917C37.3604 38.7917 38.0222 38.7906 38.5287 38.7576C39.0161 38.7258 39.2017 38.6715 39.2906 38.6363C39.8143 38.429 40.2304 38.0316 40.4473 37.5313C40.4842 37.4464 40.5411 37.2691 40.5743 36.8036C40.6089 36.3197 40.61 35.6876 40.61 34.7083C40.61 33.7291 40.6089 33.0969 40.5743 32.6131C40.5411 32.1476 40.4842 31.9703 40.4473 31.8854C40.2304 31.3851 39.8143 30.9876 39.2906 30.7804C39.2017 30.7452 39.0161 30.6909 38.5287 30.6591C38.0222 30.6261 37.3604 30.625 36.3353 30.625C35.3102 30.625 34.6484 30.6261 34.1418 30.6591Z" fill="#95B8D1"/>
<path fill-rule="evenodd" clip-rule="evenodd" d="M14.8932 6.125H15.03C15.9675 6.12498 16.7765 6.12495 17.446 6.16859C18.151 6.21454 18.8561 6.31561 19.5528 6.59124C21.1239 7.21289 22.3722 8.40527 23.023 9.90607C23.3115 10.5715 23.4173 11.2451 23.4654 11.9185C23.5111 12.558 23.5111 13.3308 23.5111 14.2264V14.357C23.5111 15.2526 23.5111 16.0253 23.4654 16.6649C23.4173 17.3383 23.3115 18.0118 23.023 18.6773C22.3722 20.1781 21.1239 21.3704 19.5528 21.9921C18.8561 22.2677 18.151 22.3688 17.446 22.4147C16.7765 22.4584 15.9675 22.4584 15.03 22.4583H14.8932C13.9557 22.4584 13.1467 22.4584 12.4772 22.4147C11.7722 22.3688 11.067 22.2677 10.3704 21.9921C8.79927 21.3704 7.551 20.1781 6.9002 18.6773C6.61165 18.0118 6.50584 17.3383 6.45774 16.6649C6.41206 16.0253 6.41208 15.2525 6.41211 14.357V14.2264C6.41208 13.3308 6.41206 12.558 6.45774 11.9185C6.50584 11.2451 6.61165 10.5715 6.9002 9.90607C7.551 8.40527 8.79927 7.21289 10.3704 6.59124C11.067 6.31561 11.7722 6.21454 12.4772 6.16859C13.1467 6.12495 13.9557 6.12498 14.8932 6.125ZM12.7681 10.2425C12.2808 10.2742 12.0952 10.3286 12.0063 10.3637C11.4826 10.571 11.0665 10.9684 10.8495 11.4687C10.8127 11.5537 10.7558 11.7309 10.7226 12.1964C10.688 12.6803 10.6869 13.3124 10.6869 14.2917C10.6869 15.2709 10.688 15.9031 10.7226 16.3869C10.7558 16.8524 10.8127 17.0297 10.8495 17.1146C11.0665 17.6149 11.4826 18.0124 12.0063 18.2196C12.0952 18.2548 12.2808 18.3091 12.7681 18.3409C13.2747 18.3739 13.9365 18.375 14.9616 18.375C15.9867 18.375 16.6485 18.3739 17.155 18.3409C17.6424 18.3091 17.828 18.2548 17.9169 18.2196C18.4406 18.0124 18.8567 17.6149 19.0736 17.1146C19.1105 17.0297 19.1674 16.8524 19.2006 16.3869C19.2352 15.9031 19.2363 15.2709 19.2363 14.2917C19.2363 13.3124 19.2352 12.6803 19.2006 12.1964C19.1674 11.7309 19.1105 11.5537 19.0736 11.4687C18.8567 10.9684 18.4406 10.571 17.9169 10.3637C17.828 10.3286 17.6424 10.2742 17.155 10.2425C16.6485 10.2094 15.9867 10.2083 14.9616 10.2083C13.9365 10.2083 13.2747 10.2094 12.7681 10.2425Z" fill="#95B8D1"/>
</svg>
