<?xml version="1.0" encoding="UTF-8" standalone="no"?><!DOCTYPE svg PUBLIC "-//W3C//DTD SVG 1.1//EN" "http://www.w3.org/Graphics/SVG/1.1/DTD/svg11.dtd"><svg width="100%" height="100%" viewBox="0 0 217 205" version="1.1" xmlns="http://www.w3.org/2000/svg" xmlns:xlink="http://www.w3.org/1999/xlink" xml:space="preserve" xmlns:serif="http://www.serif.com/" style="fill-rule:evenodd;clip-rule:evenodd;stroke-linejoin:round;stroke-miterlimit:2;"><path d="M151.682,25.521l-0.57,-0c-3.906,-0 -7.277,-0 -10.067,0.181c-2.937,0.192 -5.875,0.613 -8.778,1.762c-6.546,2.59 -11.747,7.558 -14.459,13.811c-1.202,2.773 -1.643,5.58 -1.844,8.385c-0.19,2.665 -0.19,5.885 -0.19,9.616l0,0.545c0,3.731 0,6.951 0.19,9.616c0.201,2.806 0.642,5.612 1.844,8.385c2.712,6.253 7.913,11.222 14.459,13.812c2.903,1.148 5.841,1.569 8.778,1.761c2.79,0.182 6.16,0.182 10.067,0.181l0.57,0c3.906,0.001 7.277,0.001 10.067,-0.181c2.937,-0.192 5.875,-0.613 8.778,-1.761c6.546,-2.59 11.748,-7.559 14.459,-13.812c1.202,-2.773 1.643,-5.579 1.844,-8.385c0.19,-2.665 0.19,-5.885 0.19,-9.616l0,-0.544c0,-3.732 0,-6.952 -0.19,-9.617c-0.201,-2.805 -0.642,-5.612 -1.844,-8.385c-2.711,-6.253 -7.913,-11.221 -14.459,-13.812c-2.903,-1.148 -5.841,-1.569 -8.778,-1.761c-2.79,-0.181 -6.161,-0.181 -10.067,-0.181Zm-12.599,17.661c0.371,-0.146 1.144,-0.373 3.174,-0.505c2.111,-0.138 4.869,-0.142 9.14,-0.142c4.271,-0 7.029,0.004 9.139,0.142c2.031,0.132 2.804,0.359 3.175,0.505c2.182,0.864 3.916,2.52 4.819,4.604c0.154,0.354 0.391,1.093 0.53,3.032c0.144,2.017 0.148,4.65 0.148,8.731c0,4.08 -0.004,6.714 -0.148,8.73c-0.139,1.939 -0.376,2.678 -0.53,3.032c-0.903,2.084 -2.637,3.741 -4.819,4.604c-0.371,0.147 -1.144,0.373 -3.175,0.505c-2.11,0.138 -4.868,0.142 -9.139,0.142c-4.271,0.001 -7.029,-0.004 -9.14,-0.142c-2.03,-0.132 -2.803,-0.358 -3.174,-0.505c-2.182,-0.863 -3.916,-2.52 -4.819,-4.604c-0.154,-0.354 -0.391,-1.093 -0.529,-3.032c-0.145,-2.016 -0.149,-4.65 -0.149,-8.73c-0,-4.081 0.004,-6.714 0.149,-8.731c0.138,-1.939 0.375,-2.678 0.529,-3.032c0.903,-2.084 2.637,-3.74 4.819,-4.604Z" style="fill:#95b8d1;"/><path d="M62.055,110.59l0.57,0c3.906,0 7.277,0 10.067,0.182c2.937,0.191 5.875,0.613 8.778,1.761c6.546,2.59 11.747,7.558 14.459,13.812c1.202,2.773 1.643,5.579 1.843,8.385c0.191,2.665 0.191,5.884 0.191,9.615l-0,0.545c-0,3.732 -0,6.952 -0.191,9.616c-0.2,2.806 -0.641,5.613 -1.843,8.385c-2.712,6.254 -7.913,11.222 -14.459,13.812c-2.903,1.149 -5.841,1.57 -8.778,1.761c-2.79,0.182 -6.161,0.182 -10.067,0.182l-0.57,-0c-3.906,-0 -7.277,0 -10.067,-0.182c-2.937,-0.191 -5.876,-0.612 -8.778,-1.761c-6.546,-2.59 -11.748,-7.558 -14.459,-13.812c-1.202,-2.772 -1.643,-5.579 -1.844,-8.385c-0.19,-2.664 -0.19,-5.884 -0.19,-9.616l0,-0.544c0,-3.731 -0,-6.951 0.19,-9.616c0.201,-2.806 0.642,-5.612 1.844,-8.385c2.711,-6.254 7.913,-11.222 14.459,-13.812c2.902,-1.148 5.841,-1.57 8.778,-1.761c2.79,-0.182 6.161,-0.182 10.067,-0.182Zm-8.855,17.156c-2.03,0.133 -2.803,0.359 -3.174,0.506c-2.182,0.863 -3.916,2.519 -4.819,4.604c-0.154,0.354 -0.391,1.092 -0.529,3.032c-0.145,2.016 -0.149,4.65 -0.149,8.73c-0,4.08 0.004,6.714 0.149,8.73c0.138,1.94 0.375,2.679 0.529,3.032c0.903,2.085 2.637,3.741 4.819,4.605c0.371,0.146 1.144,0.373 3.174,0.505c2.111,0.138 4.869,0.142 9.14,0.142c4.271,0 7.029,-0.004 9.139,-0.142c2.031,-0.132 2.804,-0.359 3.175,-0.505c2.182,-0.864 3.916,-2.52 4.819,-4.605c0.154,-0.353 0.391,-1.092 0.53,-3.032c0.144,-2.016 0.148,-4.65 0.148,-8.73c0,-4.08 -0.004,-6.714 -0.148,-8.73c-0.139,-1.94 -0.376,-2.678 -0.53,-3.032c-0.903,-2.085 -2.637,-3.741 -4.819,-4.604c-0.371,-0.147 -1.144,-0.373 -3.175,-0.506c-2.11,-0.137 -4.868,-0.142 -9.139,-0.142c-4.271,0 -7.029,0.005 -9.14,0.142Z" style="fill:#95b8d1;"/><path d="M151.112,110.59l0.57,0c3.906,0 7.277,0 10.067,0.182c2.937,0.191 5.875,0.613 8.778,1.761c6.546,2.59 11.748,7.558 14.459,13.812c1.202,2.773 1.643,5.579 1.844,8.385c0.19,2.665 0.19,5.885 0.19,9.616l0,0.544c0,3.732 0,6.952 -0.19,9.616c-0.201,2.806 -0.642,5.613 -1.844,8.385c-2.711,6.254 -7.913,11.222 -14.459,13.812c-2.903,1.149 -5.841,1.57 -8.778,1.761c-2.79,0.182 -6.161,0.182 -10.067,0.182l-0.57,-0c-3.906,-0 -7.277,0 -10.067,-0.182c-2.937,-0.191 -5.875,-0.612 -8.778,-1.761c-6.546,-2.59 -11.747,-7.558 -14.459,-13.812c-1.202,-2.772 -1.643,-5.579 -1.844,-8.385c-0.19,-2.664 -0.19,-5.884 -0.19,-9.616l0,-0.544c0,-3.731 0,-6.951 0.19,-9.616c0.201,-2.806 0.642,-5.613 1.844,-8.385c2.712,-6.254 7.913,-11.222 14.459,-13.812c2.903,-1.148 5.841,-1.57 8.778,-1.761c2.79,-0.182 6.161,-0.182 10.067,-0.182Zm-8.854,17.156c-2.031,0.133 -2.804,0.359 -3.175,0.506c-2.182,0.863 -3.915,2.519 -4.819,4.604c-0.154,0.354 -0.391,1.092 -0.529,3.032c-0.145,2.016 -0.149,4.65 -0.149,8.73c-0,4.08 0.004,6.714 0.149,8.73c0.138,1.94 0.375,2.679 0.529,3.032c0.904,2.085 2.637,3.741 4.819,4.605c0.371,0.146 1.144,0.373 3.175,0.505c2.11,0.137 4.868,0.142 9.139,0.142c4.271,0 7.029,-0.005 9.139,-0.142c2.031,-0.132 2.804,-0.359 3.175,-0.505c2.182,-0.864 3.916,-2.52 4.819,-4.605c0.154,-0.353 0.391,-1.092 0.53,-3.032c0.144,-2.016 0.148,-4.65 0.148,-8.73c0,-4.08 -0.004,-6.714 -0.148,-8.73c-0.139,-1.94 -0.376,-2.678 -0.53,-3.032c-0.903,-2.085 -2.637,-3.741 -4.819,-4.604c-0.371,-0.147 -1.144,-0.373 -3.175,-0.506c-2.11,-0.137 -4.868,-0.142 -9.139,-0.142c-4.271,0 -7.029,0.005 -9.139,0.142Z" style="fill:#95b8d1;"/><path d="M62.055,25.521l0.57,-0c3.906,-0 7.277,-0 10.067,0.181c2.937,0.192 5.875,0.613 8.778,1.762c6.546,2.59 11.747,7.558 14.459,13.811c1.202,2.773 1.643,5.58 1.843,8.385c0.191,2.665 0.191,5.885 0.191,9.617l-0,0.544c-0,3.732 -0,6.951 -0.191,9.616c-0.2,2.806 -0.641,5.612 -1.843,8.385c-2.712,6.253 -7.913,11.221 -14.459,13.812c-2.903,1.148 -5.841,1.569 -8.778,1.761c-2.79,0.182 -6.161,0.182 -10.067,0.181l-0.57,0c-3.906,0.001 -7.277,0.001 -10.067,-0.181c-2.937,-0.192 -5.876,-0.613 -8.778,-1.761c-6.546,-2.591 -11.748,-7.559 -14.459,-13.812c-1.202,-2.773 -1.643,-5.579 -1.844,-8.385c-0.19,-2.665 -0.19,-5.885 -0.19,-9.616l0,-0.544c-0,-3.732 -0,-6.952 0.19,-9.617c0.201,-2.805 0.642,-5.612 1.844,-8.385c2.711,-6.253 7.913,-11.221 14.459,-13.811c2.902,-1.149 5.841,-1.57 8.778,-1.762c2.79,-0.181 6.161,-0.181 10.067,-0.181Zm-8.855,17.156c-2.03,0.132 -2.803,0.359 -3.174,0.505c-2.182,0.864 -3.916,2.52 -4.82,4.604c-0.153,0.354 -0.39,1.093 -0.529,3.032c-0.144,2.017 -0.148,4.65 -0.148,8.731c-0,4.08 0.004,6.714 0.149,8.73c0.138,1.939 0.375,2.678 0.528,3.032c0.904,2.084 2.638,3.741 4.82,4.604c0.371,0.147 1.144,0.373 3.174,0.505c2.111,0.138 4.869,0.143 9.14,0.143c4.271,-0 7.029,-0.005 9.139,-0.143c2.031,-0.132 2.804,-0.358 3.175,-0.505c2.182,-0.863 3.916,-2.52 4.819,-4.604c0.154,-0.354 0.391,-1.093 0.53,-3.032c0.144,-2.016 0.148,-4.65 0.148,-8.73c0,-4.081 -0.004,-6.714 -0.148,-8.731c-0.139,-1.939 -0.376,-2.678 -0.53,-3.032c-0.903,-2.084 -2.637,-3.74 -4.819,-4.604c-0.371,-0.146 -1.144,-0.373 -3.175,-0.505c-2.11,-0.138 -4.868,-0.142 -9.139,-0.142c-4.271,-0 -7.029,0.004 -9.14,0.142Z" style="fill:#95b8d1;"/></svg>