<?xml version="1.0" encoding="UTF-8" standalone="no"?><!DOCTYPE svg PUBLIC "-//W3C//DTD SVG 1.1//EN" "http://www.w3.org/Graphics/SVG/1.1/DTD/svg11.dtd"><svg width="100%" height="100%" viewBox="0 0 256 256" version="1.1" xmlns="http://www.w3.org/2000/svg" xmlns:xlink="http://www.w3.org/1999/xlink" xml:space="preserve" xmlns:serif="http://www.serif.com/" style="fill-rule:evenodd;clip-rule:evenodd;stroke-linecap:round;stroke-linejoin:round;stroke-miterlimit:1.5;"><rect id="home" x="0" y="-0" width="256" height="256" style="fill:none;"/><g><path d="M111.608,60.956c7.129,-6.608 18.145,-6.608 25.274,0c13.792,12.785 35.512,32.918 47.563,44.088c5.606,5.197 8.792,12.496 8.792,20.141l0,47.353c0,15.167 -12.295,27.462 -27.461,27.462l-83.062,0c-15.167,-0 -27.462,-12.295 -27.462,-27.462l0,-47.353c0,-7.645 3.187,-14.944 8.793,-20.141c12.051,-11.17 33.771,-31.303 47.563,-44.088Z" style="fill:none;stroke:#9fc0eb;stroke-width:20px;"/><rect x="101.679" y="133.809" width="45.132" height="66.191" style="fill:none;stroke:#9fc0eb;stroke-width:20px;"/></g></svg>