<?xml version="1.0" encoding="UTF-8" standalone="no"?><!DOCTYPE svg PUBLIC "-//W3C//DTD SVG 1.1//EN" "http://www.w3.org/Graphics/SVG/1.1/DTD/svg11.dtd"><svg width="100%" height="100%" viewBox="0 0 256 256" version="1.1" xmlns="http://www.w3.org/2000/svg" xmlns:xlink="http://www.w3.org/1999/xlink" xml:space="preserve" xmlns:serif="http://www.serif.com/" style="fill-rule:evenodd;clip-rule:evenodd;stroke-linecap:round;stroke-linejoin:round;stroke-miterlimit:1.5;"><rect id="Artboard4" x="0" y="-0" width="256" height="256" style="fill:none;"/><g><path d="M194.848,91.099c0,-4.811 -1.911,-9.424 -5.313,-12.826c-3.401,-3.402 -8.015,-5.313 -12.826,-5.313c-25.55,0 -71.868,0 -97.418,0c-4.811,0 -9.425,1.911 -12.826,5.313c-3.402,3.402 -5.313,8.015 -5.313,12.826c-0,20.415 -0,53.387 -0,73.802c-0,4.811 1.911,9.424 5.313,12.826c3.401,3.402 8.015,5.313 12.826,5.313c25.55,-0 71.868,-0 97.418,-0c4.811,-0 9.425,-1.911 12.826,-5.313c3.402,-3.402 5.313,-8.015 5.313,-12.826c0,-20.415 0,-53.387 0,-73.802Z" style="fill:none;stroke:#9fc0eb;stroke-width:20px;"/><path d="M61.152,138.022c-0,0 27.964,-46.336 55.552,-14.688c28.709,32.933 38.618,59.706 38.618,59.706" style="fill:none;stroke:#9fc0eb;stroke-width:20px;"/><path d="M130.68,144.238c0,0 17.266,-17.738 38.092,4.42c21.993,23.399 21.589,31.133 21.589,31.133" style="fill:none;stroke:#9fc0eb;stroke-width:20px;stroke-linecap:butt;"/><circle cx="152.622" cy="104.676" r="5.023" style="fill:#9fc0eb;stroke:#9fc0eb;stroke-width:20px;stroke-linecap:butt;"/></g></svg>