<?xml version="1.0" encoding="UTF-8" standalone="no"?><!DOCTYPE svg PUBLIC "-//W3C//DTD SVG 1.1//EN" "http://www.w3.org/Graphics/SVG/1.1/DTD/svg11.dtd"><svg width="100%" height="100%" viewBox="0 0 256 256" version="1.1" xmlns="http://www.w3.org/2000/svg" xmlns:xlink="http://www.w3.org/1999/xlink" xml:space="preserve" xmlns:serif="http://www.serif.com/" style="fill-rule:evenodd;clip-rule:evenodd;stroke-linecap:round;stroke-linejoin:round;stroke-miterlimit:1.5;"><rect id="Artboard4" x="0" y="0" width="256" height="256" style="fill:none;"/><g><g><path d="M86.126,86.696c1.166,-22.102 19.482,-39.69 41.874,-39.69c22.392,-0 40.708,17.588 41.874,39.69l0,-0l0,0.003c0.04,0.74 0.06,1.488 0.06,2.24c-0,0.752 -0.02,1.5 -0.06,2.24l0,71.668c0.04,0.74 0.06,1.488 0.06,2.24c-0,23.144 -18.79,41.934 -41.934,41.934c-23.144,-0 -41.934,-18.79 -41.934,-41.934c0,-0.752 0.02,-1.5 0.06,-2.24l-0,-71.668c-0.04,-0.74 -0.06,-1.488 -0.06,-2.24c0,-0.752 0.02,-1.5 0.06,-2.24l-0,-0.003l-0,-0Z" style="fill:none;stroke:#9fc0eb;stroke-width:20px;"/><path d="M128,77.796l0,24.651" style="fill:none;stroke:#9fc0eb;stroke-width:16.03px;"/></g></g></svg>