<?xml version="1.0" encoding="UTF-8" standalone="no"?><!DOCTYPE svg PUBLIC "-//W3C//DTD SVG 1.1//EN" "http://www.w3.org/Graphics/SVG/1.1/DTD/svg11.dtd"><svg width="100%" height="100%" viewBox="0 0 256 256" version="1.1" xmlns="http://www.w3.org/2000/svg" xmlns:xlink="http://www.w3.org/1999/xlink" xml:space="preserve" xmlns:serif="http://www.serif.com/" style="fill-rule:evenodd;clip-rule:evenodd;stroke-linejoin:round;stroke-miterlimit:1.5;"><rect id="projects" x="1" y="-0" width="256" height="256" style="fill:none;"/><g><path d="M187.052,112.548c0,-5.486 -2.179,-10.747 -6.058,-14.625c-3.878,-3.879 -9.139,-6.058 -14.625,-6.058l-33.085,-0c-5.542,-0 -10.853,-2.225 -14.741,-6.175c-2.502,-2.542 -5.395,-5.481 -7.897,-8.023c-3.888,-3.951 -9.198,-6.175 -14.741,-6.175l-20.574,-0c-5.485,-0 -10.746,2.179 -14.625,6.058c-3.879,3.879 -6.058,9.14 -6.058,14.625l0,71.65c0,11.423 9.26,20.683 20.683,20.683l91.038,0c11.423,0 20.683,-9.26 20.683,-20.683l0,-51.277Z" style="fill:none;stroke:#9fc0eb;stroke-width:21px;"/></g></svg>