<?xml version="1.0" encoding="UTF-8" standalone="no"?><!DOCTYPE svg PUBLIC "-//W3C//DTD SVG 1.1//EN" "http://www.w3.org/Graphics/SVG/1.1/DTD/svg11.dtd"><svg width="100%" height="100%" viewBox="0 0 256 256" version="1.1" xmlns="http://www.w3.org/2000/svg" xmlns:xlink="http://www.w3.org/1999/xlink" xml:space="preserve" xmlns:serif="http://www.serif.com/" style="fill-rule:evenodd;clip-rule:evenodd;stroke-miterlimit:10;"><rect id="Artboard3" x="0" y="0" width="256" height="256" style="fill:none;"/><clipPath id="_clip1"><rect x="0" y="0" width="256" height="256"/></clipPath><g clip-path="url(#_clip1)"><clipPath id="_clip2"><rect x="-4.698" y="-5.1" width="109.396" height="110.2"/></clipPath><g clip-path="url(#_clip2)"><path d="M11.711,50l28.717,-28.931c2.537,-2.559 5.983,-3.997 9.572,-3.997c3.589,-0 7.035,1.438 9.572,3.997c2.539,2.556 3.966,6.027 3.966,9.642c0,3.616 -1.427,7.087 -3.966,9.643l-19.144,19.285c-2.539,2.556 -3.966,6.027 -3.966,9.642c-0,3.616 1.427,7.087 3.966,9.643c2.537,2.558 5.983,3.997 9.572,3.997c3.589,-0 7.035,-1.439 9.572,-3.997l28.717,-28.924" style="fill:none;fill-rule:nonzero;stroke:#95b8d1;stroke-width:10.98px;"/></g></g></svg>