<?xml version="1.0" encoding="UTF-8" standalone="no"?><!DOCTYPE svg PUBLIC "-//W3C//DTD SVG 1.1//EN" "http://www.w3.org/Graphics/SVG/1.1/DTD/svg11.dtd"><svg width="100%" height="100%" viewBox="0 0 1067 1067" version="1.1" xmlns="http://www.w3.org/2000/svg" xmlns:xlink="http://www.w3.org/1999/xlink" xml:space="preserve" xmlns:serif="http://www.serif.com/" style="fill-rule:evenodd;clip-rule:evenodd;stroke-linejoin:round;stroke-miterlimit:1.5;"><g><path d="M838.342,462.142c-0,-25.275 -10.04,-49.514 -27.911,-67.381c-17.867,-17.871 -42.106,-27.91 -67.381,-27.91l-152.43,-0c-25.534,-0 -50.003,-10.251 -67.916,-28.45c-11.527,-11.711 -24.856,-25.252 -36.383,-36.964c-17.913,-18.203 -42.377,-28.449 -67.915,-28.449l-94.79,-0c-25.27,-0 -49.509,10.039 -67.38,27.91c-17.872,17.872 -27.911,42.11 -27.911,67.381l-0,330.109c-0,52.628 42.663,95.291 95.291,95.291l419.434,0c52.629,0 95.292,-42.663 95.292,-95.291l-0,-236.246Z" style="fill:none;stroke:#9fc0eb;stroke-width:96.75px;"/></g></svg>