<svg width="18" height="18" viewBox="0 0 18 18" fill="none" xmlns="http://www.w3.org/2000/svg">
<path fill-rule="evenodd" clip-rule="evenodd" d="M3 0C1.34315 0 0 1.34315 0 3C0 4.65685 1.34315 6 3 6H5C6.65685 6 8 4.65685 8 3C8 1.34315 6.65685 0 5 0H3ZM2 3C2 2.44772 2.44772 2 3 2H5C5.55228 2 6 2.44772 6 3C6 3.55228 5.55228 4 5 4H3C2.44772 4 2 3.55228 2 3Z" fill="#12131A"/>
<path fill-rule="evenodd" clip-rule="evenodd" d="M13 12C11.3431 12 10 13.3431 10 15C10 16.6569 11.3431 18 13 18H15C16.6569 18 18 16.6569 18 15C18 13.3431 16.6569 12 15 12H13ZM12 15C12 14.4477 12.4477 14 13 14H15C15.5523 14 16 14.4477 16 15C16 15.5523 15.5523 16 15 16H13C12.4477 16 12 15.5523 12 15Z" fill="#12131A"/>
</svg>
