<?xml version="1.0" encoding="UTF-8" standalone="no"?>
<!DOCTYPE svg PUBLIC "-//W3C//DTD SVG 1.1//EN" "http://www.w3.org/Graphics/SVG/1.1/DTD/svg11.dtd">
<svg width="100%" height="100%" viewBox="0 0 148 148" version="1.1" xmlns="http://www.w3.org/2000/svg" xmlns:xlink="http://www.w3.org/1999/xlink" xml:space="preserve" xmlns:serif="http://www.serif.com/" style="fill-rule:evenodd;clip-rule:evenodd;stroke-linejoin:round;stroke-miterlimit:2;">
    <g transform="matrix(1,0,0,1,-318,-2162)">
        <g id="Star" transform="matrix(1,0,0,1,-0.375097,0)">
            <rect x="318.375" y="2162" width="148" height="148" style="fill:none;"/>
            <g transform="matrix(1.04737,0,0,1.04737,111.438,-459.708)">
                <path d="M262.814,2528.72C263.878,2526.71 265.961,2525.46 268.229,2525.46C270.498,2525.46 272.581,2526.71 273.645,2528.72L286.29,2552.53C286.37,2552.68 286.484,2552.81 286.623,2552.91C286.763,2553.01 286.923,2553.08 287.092,2553.11L313.647,2557.78C315.881,2558.17 317.716,2559.76 318.417,2561.92C319.118,2564.08 318.571,2566.45 316.994,2568.08L298.254,2587.46C298.134,2587.59 298.045,2587.74 297.992,2587.9C297.938,2588.06 297.923,2588.24 297.947,2588.41L301.715,2615.1C302.032,2617.35 301.083,2619.59 299.247,2620.92C297.412,2622.26 294.99,2622.47 292.952,2621.47L268.725,2609.64C268.571,2609.56 268.401,2609.52 268.229,2609.52C268.058,2609.52 267.888,2609.56 267.733,2609.64L243.507,2621.47C241.469,2622.47 239.047,2622.26 237.212,2620.92C235.376,2619.59 234.427,2617.35 234.744,2615.1L238.512,2588.41C238.536,2588.24 238.52,2588.06 238.467,2587.9C238.414,2587.74 238.324,2587.59 238.205,2587.46L219.465,2568.08C217.888,2566.45 217.341,2564.08 218.042,2561.92C218.743,2559.76 220.578,2558.17 222.812,2557.78L249.367,2553.11C249.536,2553.08 249.696,2553.01 249.835,2552.91C249.975,2552.81 250.089,2552.68 250.169,2552.53L262.814,2528.72Z" style="fill:rgb(81,219,192);"/>
            </g>
        </g>
    </g>
</svg>
